<svg xmlns="http://www.w3.org/2000/svg" xmlns:xlink="http://www.w3.org/1999/xlink" width="165.287" height="74.451" viewBox="0 0 165.287 74.451">
  <defs>
    <filter id="パス_3197" x="70.865" y="19.27" width="94.422" height="24.8" filterUnits="userSpaceOnUse">
      <feOffset dx="2" dy="3" input="SourceAlpha"/>
      <feGaussianBlur result="blur"/>
      <feFlood flood-color="#03cdd5"/>
      <feComposite operator="in" in2="blur"/>
      <feComposite in="SourceGraphic"/>
    </filter>
  </defs>
  <g id="グループ_5443" data-name="グループ 5443" transform="translate(-162.441 -4786.331)">
    <g id="指差し手袋アイコン" transform="matrix(0.616, -0.788, 0.788, 0.616, 80.97, 4773.469)">
      <path id="パス_3193" data-name="パス 3193" d="M62.8,114.433a6.818,6.818,0,0,0-3.389-3.529,3.81,3.81,0,0,0-2.6-.077,3.224,3.224,0,0,0-1.394.945c-.02-.031-.031-.066-.052-.1a8.34,8.34,0,0,0-1.96-2.241,14.5,14.5,0,0,0-5.122-2.642,25.861,25.861,0,0,0-2.782-.653c-.935-.189-1.907-.266-2.812-.373-1.859-.2-3.713-.337-5.572-.441-7.438-.393-14.846-.155-22.158-.913-1.829-.181-3.651-.409-5.464-.693l-1.37-.22a10.147,10.147,0,0,0-1.523-.107,7.985,7.985,0,0,0-3.044.592,6.056,6.056,0,0,0-2.549,1.962A5.108,5.108,0,0,0,0,109.1a5.728,5.728,0,0,0,1.031,3.085,8.376,8.376,0,0,0,2.216,2.17,15.461,15.461,0,0,0,5.45,2.187,28.448,28.448,0,0,0,5.687.594c1.419.017,2.831-.04,4.235-.154-.045.036-.092.066-.135.1a5.886,5.886,0,0,0-1.775,2.571,6.23,6.23,0,0,0-.166,3.177,6.55,6.55,0,0,0,1.361,2.895,7.194,7.194,0,0,0,2.348,1.851,2.631,2.631,0,0,0-.188.376,3.05,3.05,0,0,0-.171,1.3,5.591,5.591,0,0,0,.788,2.286,8.882,8.882,0,0,0,3.306,3.181,10.845,10.845,0,0,0,1.621.74,2.318,2.318,0,0,0-.329.8,3.272,3.272,0,0,0,.208,1.9,5.448,5.448,0,0,0,2.434,2.546,10.3,10.3,0,0,0,6.45.974,9.965,9.965,0,0,0,5.471-2.6,37.5,37.5,0,0,0,4.975-.22,27.89,27.89,0,0,0,4.975-1.01,14.4,14.4,0,0,0,4.628-2.3,9.4,9.4,0,0,0,.93-.849,4.072,4.072,0,0,0,1.582,1.324,3.441,3.441,0,0,0,2.641.086,5.119,5.119,0,0,0,2.055-1.548,9.166,9.166,0,0,0,1.26-2.074,22.885,22.885,0,0,0,1.57-9.018A21.5,21.5,0,0,0,62.8,114.433Zm-44.755,8.1a6.688,6.688,0,0,1,1.1-4.827,3.85,3.85,0,0,1,.877-.861l.012,0a42.21,42.21,0,0,0,4.437-.633c-.4.724-.81,1.434-1.252,2.128s-.893,1.355-1.414,2.071a3.258,3.258,0,0,0-.333,2.989,4.279,4.279,0,0,0,1.89,2.208,5.749,5.749,0,0,0,2.705.738,6.455,6.455,0,0,0,2.724-.462,6.343,6.343,0,0,0,2.251-1.59,9.344,9.344,0,0,0,2.176-4.421l1.739.1c.217.043.43.093.639.156a4.027,4.027,0,0,1,2.084,1.372,3.194,3.194,0,0,1,.636,2.282,2.706,2.706,0,0,1-.364,1.086,1.869,1.869,0,0,1-.815.723,17.5,17.5,0,0,1-5.248,1.5,29.385,29.385,0,0,1-5.551.268,22.616,22.616,0,0,1-2.739-.3,9.007,9.007,0,0,1-2.537-.754A5.3,5.3,0,0,1,18.046,122.535Zm6.721,10.828a7.325,7.325,0,0,1-2.7-2.626,4.969,4.969,0,0,1-.6-1.669,4.572,4.572,0,0,1-.078-.8,1.812,1.812,0,0,1,.012-.211,11.952,11.952,0,0,0,1.918.468,23.77,23.77,0,0,0,2.938.313,27.058,27.058,0,0,0,5.841-.371,19.919,19.919,0,0,0,5.092-1.49,3.289,3.289,0,0,1,2.369,1.537,3.913,3.913,0,0,1,.63,1.71,1.482,1.482,0,0,1,.007.4,1.563,1.563,0,0,1-.1.36,3.068,3.068,0,0,1-.468.726,8.4,8.4,0,0,1-3.243,2.115,14.256,14.256,0,0,1-3.9.918A13.163,13.163,0,0,1,24.767,133.363Zm14.4,4.521a8.537,8.537,0,0,1-5.022,2.2,10.218,10.218,0,0,1-2.8-.037,7.406,7.406,0,0,1-2.577-.841,4.463,4.463,0,0,1-1.746-1.743,2.339,2.339,0,0,1-.294-1.644,13.541,13.541,0,0,0,1.511.322,16.5,16.5,0,0,0,4.4.064,15.6,15.6,0,0,0,4.261-1.132,11.776,11.776,0,0,0,2.342-1.344,3.346,3.346,0,0,1,.9,1.9A3.019,3.019,0,0,1,39.17,137.884ZM62.15,127.732a17.638,17.638,0,0,1-.919,4.064,5.46,5.46,0,0,1-2.219,3,2.14,2.14,0,0,1-1.665.161,3.647,3.647,0,0,1-1.434-.927c.1-.139.21-.28.3-.428a6.823,6.823,0,0,0,.959-2.458l-.789-.186a6.5,6.5,0,0,1-2.751,3.515,13.985,13.985,0,0,1-4.3,1.772,30.677,30.677,0,0,1-4.713.766c-1.177.115-2.364.168-3.552.206a3.56,3.56,0,0,0,.169-1.716,4.106,4.106,0,0,0-1.308-2.34,7.6,7.6,0,0,0,.654-.675,3.876,3.876,0,0,0,.621-1.073,2.735,2.735,0,0,0,.154-.662,2.667,2.667,0,0,0-.031-.653,4.987,4.987,0,0,0-.909-2.18,4.683,4.683,0,0,0-1.8-1.5c-.1-.044-.2-.073-.3-.109a2.941,2.941,0,0,0,.69-.805,3.722,3.722,0,0,0,.491-1.615,4.154,4.154,0,0,0-.026-.846,10.54,10.54,0,0,0,2.627,1.679,22.083,22.083,0,0,0,6.529,1.642l.106-.8a21.165,21.165,0,0,1-6.188-1.775A9.1,9.1,0,0,1,40.017,122a5.5,5.5,0,0,1-.879-1.2,3.385,3.385,0,0,1-.4-1.277l.01-.641-.632.017-3.669.1a10.48,10.48,0,0,0-1.557.041l-.281-.024-.115.35a10.7,10.7,0,0,1-2.312,4.114,5.1,5.1,0,0,1-4.067,1.624A4.525,4.525,0,0,1,24,124.517a3.01,3.01,0,0,1-1.318-1.551,1.964,1.964,0,0,1,.21-1.83c.467-.644.971-1.389,1.416-2.1a50.194,50.194,0,0,0,2.452-4.474,12.813,12.813,0,0,1,1.191-2.061,2.11,2.11,0,0,1,.335-.332l.135-.087.11-.045.122-.039a8.969,8.969,0,0,1,1.152-.219c1.625-.216,3.31-.3,4.986-.451a37.052,37.052,0,0,0,5.059-.664l-.16-.794c-3.26.452-6.636.328-10.039.7a9.992,9.992,0,0,0-1.33.228l-.181.052-.181.071a2.243,2.243,0,0,0-.406.235,3.137,3.137,0,0,0-.567.545,13.634,13.634,0,0,0-1.355,2.283c-.2.39-.4.779-.6,1.164a37.138,37.138,0,0,0-5.164.05,46.06,46.06,0,0,1-5.449.173,29.971,29.971,0,0,1-5.336-.62,13.96,13.96,0,0,1-4.8-1.925,5,5,0,0,1-2.481-3.776,3.7,3.7,0,0,1,2.439-3.436,6.237,6.237,0,0,1,2.373-.472,8.382,8.382,0,0,1,1.247.078l1.376.2c1.851.26,3.707.462,5.566.616,7.451.648,14.889.293,22.247.575,1.838.073,3.682.187,5.506.351a18.472,18.472,0,0,1,2.691.379,20.467,20.467,0,0,1,2.578.794,20.762,20.762,0,0,1,4.726,2.384,6.473,6.473,0,0,1,2.811,4.11l.805-.08a5.415,5.415,0,0,0-.349-1.872,2.464,2.464,0,0,1,1.3-.748,2.53,2.53,0,0,1,1.711.281,5.642,5.642,0,0,1,2.328,2.958,16.288,16.288,0,0,1,.979,4.031,31.448,31.448,0,0,1,.243,4.256A32.972,32.972,0,0,1,62.15,127.732Z" fill="#252525"/>
    </g>
    <g transform="matrix(1, 0, 0, 1, 162.44, 4786.33)" filter="url(#パス_3197)">
      <path id="パス_3197-2" data-name="パス 3197" d="M1.807-17.9H11a6.291,6.291,0,0,1,4.5,1.428,5.356,5.356,0,0,1,1.5,4.065,5.519,5.519,0,0,1-1.63,4.236,7.061,7.061,0,0,1-4.974,1.526H7.361V0H1.807Zm5.554,7.629H8.716a3.486,3.486,0,0,0,2.246-.555,1.79,1.79,0,0,0,.647-1.422,1.987,1.987,0,0,0-.562-1.428,2.912,2.912,0,0,0-2.112-.586H7.361ZM31.531-17.9h5.518V-7.227a8.991,8.991,0,0,1-.494,3A6.473,6.473,0,0,1,35-1.764,6.185,6.185,0,0,1,32.788-.281a11.143,11.143,0,0,1-3.87.6,24.331,24.331,0,0,1-2.85-.183,7.455,7.455,0,0,1-2.582-.726,6.466,6.466,0,0,1-1.9-1.544A5.673,5.673,0,0,1,20.41-4.2,10.7,10.7,0,0,1,19.9-7.227V-17.9h5.518V-6.97a3.121,3.121,0,0,0,.812,2.289,3.018,3.018,0,0,0,2.252.824,3.027,3.027,0,0,0,2.24-.812,3.112,3.112,0,0,0,.812-2.3ZM39.746-5.92l5.261-.33A4.014,4.014,0,0,0,45.7-4.3,2.924,2.924,0,0,0,48.145-3.21a2.7,2.7,0,0,0,1.825-.555,1.664,1.664,0,0,0,.641-1.288A1.643,1.643,0,0,0,50-6.3a7.068,7.068,0,0,0-2.832-1.038A12.038,12.038,0,0,1,41.98-9.509a4.37,4.37,0,0,1-1.562-3.455,4.692,4.692,0,0,1,.8-2.606,5.3,5.3,0,0,1,2.4-1.929,11.228,11.228,0,0,1,4.4-.7,9,9,0,0,1,5.231,1.276A5.507,5.507,0,0,1,55.4-12.866l-5.212.305a2.8,2.8,0,0,0-.873-1.758,2.8,2.8,0,0,0-1.837-.549,2.217,2.217,0,0,0-1.453.409,1.253,1.253,0,0,0-.488.995,1,1,0,0,0,.4.769,4.531,4.531,0,0,0,1.855.659,23.212,23.212,0,0,1,5.194,1.581,5.46,5.46,0,0,1,2.283,1.984,5.029,5.029,0,0,1,.714,2.649,5.674,5.674,0,0,1-.952,3.174,5.958,5.958,0,0,1-2.661,2.2,10.752,10.752,0,0,1-4.309.751q-4.565,0-6.323-1.758A6.933,6.933,0,0,1,39.746-5.92ZM58.789-17.9h5.53v6.262h6.042V-17.9h5.554V0H70.361V-7.239H64.319V0h-5.53ZM92.309-5.525c-.025-.625-.025-.9-.025-1.15,0-.375.025-.875.075-1.925l.5-7.925c.075-1.05.225-2.8.3-3.375H87.334c.125,1.225.25,2.35.3,3.375l.5,7.925c.1,1.475.1,1.475.1,1.95a9.255,9.255,0,0,1-.05,1.125ZM92.759.9V-3.825H87.734V.9Z" transform="translate(69.56 39.67)" fill="#fff" stroke="#03cdd5" stroke-width="1"/>
    </g>
  </g>
</svg>
