<svg xmlns="http://www.w3.org/2000/svg" xmlns:xlink="http://www.w3.org/1999/xlink" width="132.03" height="113.227" viewBox="0 0 132.03 113.227">
  <defs>
    <clipPath id="clip-path">
      <rect id="長方形_2653" data-name="長方形 2653" width="36.641" height="37.438" fill="none" stroke="#707070" stroke-width="1"/>
    </clipPath>
    <clipPath id="clip-path-2">
      <rect id="長方形_2653-2" data-name="長方形 2653" width="37.285" height="38.096" fill="none" stroke="#707070" stroke-width="1"/>
    </clipPath>
    <clipPath id="clip-path-3">
      <rect id="長方形_2804" data-name="長方形 2804" width="17.031" height="24.188" fill="none" stroke="#707070" stroke-width="1"/>
    </clipPath>
    <clipPath id="clip-path-4">
      <rect id="長方形_2807" data-name="長方形 2807" width="39.911" height="37.562" fill="none"/>
    </clipPath>
    <clipPath id="clip-path-5">
      <rect id="長方形_2806" data-name="長方形 2806" width="15.896" height="16.708" fill="#fdfdfd" stroke="#fdfdfd" stroke-width="0.5"/>
    </clipPath>
  </defs>
  <g id="グループ_3227" data-name="グループ 3227" transform="translate(-201.985 -2414.985)">
    <g id="グループ_3226" data-name="グループ 3226">
      <g id="グループ_3111" data-name="グループ 3111" transform="translate(0.5 -280)">
        <g id="グループ_3112" data-name="グループ 3112" transform="translate(-3.97)">
          <g id="グループ_1838" data-name="グループ 1838" transform="translate(-7379.265 106)">
            <rect id="anh-nhat-Ee-EjUVs__w-unsplash" width="68.772" height="56.584" transform="translate(7647.978 2645.627)" fill="#fff"/>
            <rect id="anh-nhat-Ee-EjUVs__w-unsplash-2" data-name="anh-nhat-Ee-EjUVs__w-unsplash" width="66.015" height="56.584" transform="translate(7584.72 2589.043)" fill="#fff"/>
            <g id="グループ_1835" data-name="グループ 1835" transform="translate(7584.72 2588.985)">
              <rect id="anh-nhat-Ee-EjUVs__w-unsplash-3" data-name="anh-nhat-Ee-EjUVs__w-unsplash" width="66.015" height="56.584" transform="translate(0 56.642)" fill="#03cdd5"/>
              <rect id="anh-nhat-Ee-EjUVs__w-unsplash-4" data-name="anh-nhat-Ee-EjUVs__w-unsplash" width="66.015" height="56.584" transform="translate(66.015 0)" fill="#03cdd5"/>
            </g>
          </g>
          <g id="グループ_1847" data-name="グループ 1847" transform="translate(-7732 1)">
            <g id="グループ_1846" data-name="グループ 1846" transform="translate(7951 2703.404)">
              <g id="グループ_1845" data-name="グループ 1845" transform="translate(0 0)" clip-path="url(#clip-path)">
                <path id="パス_2657" data-name="パス 2657" d="M32.721,36.822H1.733A1.411,1.411,0,0,1,.321,35.411V1.733A1.412,1.412,0,0,1,1.733.321H34.615a1.412,1.412,0,0,1,1.412,1.412V35.411a1.411,1.411,0,0,1-1.412,1.411Z" transform="translate(0.147 0.148)" fill="none" stroke="#344154" stroke-linecap="round" stroke-linejoin="round" stroke-width="1"/>
                <ellipse id="楕円形_239" data-name="楕円形 239" cx="0.336" cy="0.336" rx="0.336" ry="0.336" transform="translate(4.596 3.99)" fill="none" stroke="#344154" stroke-linecap="round" stroke-linejoin="round" stroke-width="1"/>
                <ellipse id="楕円形_240" data-name="楕円形 240" cx="0.336" cy="0.336" rx="0.336" ry="0.336" transform="translate(8.425 3.99)" fill="none" stroke="#344154" stroke-linecap="round" stroke-linejoin="round" stroke-width="1"/>
                <ellipse id="楕円形_241" data-name="楕円形 241" cx="0.336" cy="0.336" rx="0.336" ry="0.336" transform="translate(12.255 3.99)" fill="none" stroke="#344154" stroke-linecap="round" stroke-linejoin="round" stroke-width="1"/>
                <line id="線_43" data-name="線 43" x2="30.159" transform="translate(3.241 8.11)" fill="none" stroke="#344154" stroke-linecap="round" stroke-linejoin="round" stroke-width="1"/>
              </g>
            </g>
          </g>
        </g>
        <g id="グループ_1847-2" data-name="グループ 1847" transform="translate(-7667.97 58.342)">
          <g id="グループ_1846-2" data-name="グループ 1846" transform="translate(7951 2703.404)">
            <g id="グループ_1845-2" data-name="グループ 1845" transform="translate(0 0)" clip-path="url(#clip-path-2)">
              <path id="パス_2657-2" data-name="パス 2657" d="M33.29,37.463H1.758A1.436,1.436,0,0,1,.321,36.028V1.758A1.436,1.436,0,0,1,1.758.321H35.217a1.436,1.436,0,0,1,1.437,1.437v34.27a1.436,1.436,0,0,1-1.437,1.436Z" transform="translate(0.156 0.156)" fill="none" stroke="#344154" stroke-linecap="round" stroke-linejoin="round" stroke-width="1"/>
              <ellipse id="楕円形_239-2" data-name="楕円形 239" cx="0.341" cy="0.341" rx="0.341" ry="0.341" transform="translate(4.676 4.06)" fill="none" stroke="#344154" stroke-linecap="round" stroke-linejoin="round" stroke-width="1"/>
              <ellipse id="楕円形_240-2" data-name="楕円形 240" cx="0.341" cy="0.341" rx="0.341" ry="0.341" transform="translate(8.574 4.06)" fill="none" stroke="#344154" stroke-linecap="round" stroke-linejoin="round" stroke-width="1"/>
              <ellipse id="楕円形_241-2" data-name="楕円形 241" cx="0.341" cy="0.341" rx="0.341" ry="0.341" transform="translate(12.471 4.06)" fill="none" stroke="#344154" stroke-linecap="round" stroke-linejoin="round" stroke-width="1"/>
              <line id="線_43-2" data-name="線 43" x2="30.689" transform="translate(3.298 8.253)" fill="none" stroke="#344154" stroke-linecap="round" stroke-linejoin="round" stroke-width="1"/>
              <path id="パス_2658" data-name="パス 2658" d="M7.379,23.153h8.906l1.247,2.177,1.245-2.177H22.52a1.343,1.343,0,0,0,1.448-1.2V9.411a1.343,1.343,0,0,0-1.448-1.2H7.457a1.343,1.343,0,0,0-1.448,1.2v12.6A1.27,1.27,0,0,0,7.379,23.153Z" transform="translate(3.248 8.495)" fill="none" stroke="#344154" stroke-linecap="round" stroke-miterlimit="10" stroke-width="1"/>
              <path id="パス_2660" data-name="パス 2660" d="M7.265,21.564h4.548L7.265,17.016Z" transform="translate(3.521 8.248)" fill="#03cdd5"/>
            </g>
          </g>
          <path id="パス_2662" data-name="パス 2662" d="M1.018,0,0,4.07" transform="translate(7977.966 2714.695)" fill="none" stroke="#344154" stroke-width="1"/>
          <line id="線_45" data-name="線 45" x1="3.053" y2="3.053" transform="translate(7978.983 2716.73)" fill="none" stroke="#344154" stroke-width="1"/>
          <path id="パス_2661" data-name="パス 2661" d="M4.07,0H0" transform="translate(7980.001 2720.801)" fill="none" stroke="#344154" stroke-width="1"/>
        </g>
      </g>
      <g id="グループ_3215" data-name="グループ 3215" transform="translate(227 2437.838)">
        <g id="グループ_3214" data-name="グループ 3214" transform="translate(-2 -2.958)" clip-path="url(#clip-path-3)">
          <path id="パス_3130" data-name="パス 3130" d="M11.032,13.02a24.306,24.306,0,0,1,2.506,1.543,1.9,1.9,0,0,1,.422.479,2.131,2.131,0,0,1,.31,1.133v1.742H4.155" transform="translate(-0.698 -2.186)" fill="none" stroke="#344154" stroke-linecap="round" stroke-miterlimit="10" stroke-width="1"/>
          <path id="パス_3131" data-name="パス 3131" d="M7.394,13.02a24.306,24.306,0,0,0-2.506,1.543,1.9,1.9,0,0,0-.422.479,2.131,2.131,0,0,0-.31,1.133v1.742" transform="translate(-0.698 -2.186)" fill="none" stroke="#344154" stroke-linecap="round" stroke-miterlimit="10" stroke-width="1"/>
          <ellipse id="楕円形_299" data-name="楕円形 299" cx="2.546" cy="3.163" rx="2.546" ry="3.163" transform="translate(5.969 5.459)" fill="none" stroke="#344154" stroke-linecap="round" stroke-miterlimit="10" stroke-width="1"/>
          <path id="パス_3132" data-name="パス 3132" d="M10.116,7.954a1.022,1.022,0,0,0-.58.193,2.215,2.215,0,0,1,.807,1.81,2.214,2.214,0,0,1-.807,1.81,1.022,1.022,0,0,0,.58.193c.751,0,1.387-.917,1.387-2s-.636-2-1.387-2" transform="translate(-1.601 -1.335)" fill="#03cdd5"/>
          <path id="パス_3133" data-name="パス 3133" d="M6.839.692V3.5a.48.48,0,0,0,.48.48h.193a.48.48,0,0,0,.476-.419L8,3.5a1.681,1.681,0,0,1,3.334,0l.007.059A.48.48,0,0,0,12.3,3.5V.692a.371.371,0,0,0-.371-.371H7.21A.371.371,0,0,0,6.839.692Z" transform="translate(-1.148 -0.054)" fill="none" stroke="#344154" stroke-linecap="round" stroke-linejoin="round" stroke-width="1"/>
          <path id="パス_3134" data-name="パス 3134" d="M4.725,1.671H.763A.434.434,0,0,0,.321,2.1V22.9a.434.434,0,0,0,.442.425H16.375a.434.434,0,0,0,.443-.425V2.1a.434.434,0,0,0-.443-.425H12.221" transform="translate(-0.054 -0.281)" fill="none" stroke="#344154" stroke-linecap="round" stroke-linejoin="round" stroke-width="1"/>
          <line id="線_141" data-name="線 141" x2="5.264" transform="translate(5.884 18.221)" fill="none" stroke="#344154" stroke-linecap="round" stroke-linejoin="round" stroke-width="1"/>
          <line id="線_142" data-name="線 142" x2="5.264" transform="translate(5.884 20.634)" fill="none" stroke="#344154" stroke-linecap="round" stroke-linejoin="round" stroke-width="1"/>
        </g>
      </g>
      <g id="グループ_3221" data-name="グループ 3221" transform="translate(277.089 2425.169)">
        <g id="グループ_3220" data-name="グループ 3220" transform="translate(0 0)" clip-path="url(#clip-path-4)">
          <path id="パス_3141" data-name="パス 3141" d="M39.666,7.141a1.285,1.285,0,0,0-1.043-.523H13.873a1.28,1.28,0,1,0,0,2.559h23l-.922,2.88H16.682a1.281,1.281,0,1,0,0,2.562H35.129l-1.056,3.311h-15.9a1.28,1.28,0,0,0,0,2.559H33.25l-.893,2.777H15.418L8.466,3.2a1.3,1.3,0,0,0-.741-.767L1.747.091a1.278,1.278,0,1,0-.933,2.38L6.237,4.6l6.645,19.151a1.069,1.069,0,0,0-.657.644l-1.918,5.334a1.063,1.063,0,0,0,.129.975,1.075,1.075,0,0,0,.878.455H12.3a3.793,3.793,0,0,0-.985,2.559,3.841,3.841,0,1,0,6.692-2.559h8.379a3.841,3.841,0,1,0,5.712,0h1.2a1.067,1.067,0,1,0,0-2.133H12.832l1.185-3.3a1.369,1.369,0,0,0,.494.1H33.292a1.269,1.269,0,0,0,1.217-.885L39.85,8.286a1.282,1.282,0,0,0-.184-1.146M15.152,35.428A1.707,1.707,0,1,1,16.86,33.72a1.706,1.706,0,0,1-1.708,1.708m14.086,0a1.707,1.707,0,1,1,1.708-1.708,1.7,1.7,0,0,1-1.708,1.708" transform="translate(0 0)" fill="#fdfdfd"/>
        </g>
      </g>
      <g id="楕円形_300" data-name="楕円形 300" transform="translate(303 2441)" fill="#03cdd5" stroke="#fdfdfd" stroke-width="1.5">
        <circle cx="12" cy="12" r="12" stroke="none"/>
        <circle cx="12" cy="12" r="11.25" fill="none"/>
      </g>
      <g id="グループ_3219" data-name="グループ 3219" transform="translate(307.355 2444.95)">
        <g id="グループ_3218" data-name="グループ 3218" transform="translate(0 0)" clip-path="url(#clip-path-5)">
          <path id="パス_3140" data-name="パス 3140" d="M15.646,4.062l-2.79-1.148v0c0-.663-.263-1.767-2.008-1.767a4.923,4.923,0,0,0-1.871.427A3.208,3.208,0,0,1,9.906.777.413.413,0,1,0,9.517.049,4.266,4.266,0,0,0,8.049,1.455,2.371,2.371,0,0,0,7.1.392a.411.411,0,1,0-.376.732,1.552,1.552,0,0,1,.535.612,5.022,5.022,0,0,0-2.216-.593C3.3,1.144,3.04,2.247,3.04,2.91v0L.254,4.062a.094.094,0,0,0-.031.013.35.35,0,0,0-.164.135A.492.492,0,0,0,0,4.445v8.186A.408.408,0,0,0,.228,13l7.527,3.662a.408.408,0,0,0,.19.046.386.386,0,0,0,.186-.04l7.538-3.662a.417.417,0,0,0,.228-.376V4.445a.415.415,0,0,0-.25-.383M10.925,1.951c1.033,0,1.179.449,1.179.935s-.146.938-1.179.938c-.6,0-2.51-.314-2.51-.75s1.364-1.123,2.51-1.123M5,1.951c1.141,0,2.505.685,2.505,1.123s-1.9.75-2.505.75c-1.039,0-1.183-.451-1.183-.938S3.965,1.951,5,1.951m-1.546,11.7L.825,12.374V5.06L3.458,6.15ZM1.493,4.443l1.716-.708a1.791,1.791,0,0,0,1.84.935,6.993,6.993,0,0,0,1.238-.115l-2.18.962Zm6.043,11.2L4.283,14.057V6.49L7.536,7.833ZM7.949,7.1,5.161,5.951,7.954,4.715l2.79,1.236Zm3.664,6.963L8.36,15.638V7.833L11.613,6.49ZM9.63,4.558a7,7,0,0,0,1.218.113,1.793,1.793,0,0,0,1.84-.935l1.718.71-.137.055L11.794,5.517Zm5.446,7.816-2.638,1.282V6.15l2.163-.9.475-.195Z" transform="translate(0 -0.002)" fill="#fdfdfd" stroke="#fdfdfd" stroke-width="0.5"/>
        </g>
      </g>
    </g>
    <g id="グループ_3223" data-name="グループ 3223" transform="translate(0 -3)">
      <g id="グループ_3222" data-name="グループ 3222" transform="translate(214.87 2486.93)">
        <path id="Icon_metro-credit-card" data-name="Icon metro-credit-card" d="M38.908,5.784H6.33A3.77,3.77,0,0,0,2.571,9.543V32.1A3.77,3.77,0,0,0,6.33,35.856H38.908A3.77,3.77,0,0,0,42.667,32.1V9.543a3.77,3.77,0,0,0-3.759-3.759ZM6.33,8.29H38.908a1.27,1.27,0,0,1,1.253,1.253V13.3H5.077V9.543A1.27,1.27,0,0,1,6.33,8.29ZM38.908,33.35H6.33A1.27,1.27,0,0,1,5.077,32.1V20.82H40.161V32.1A1.27,1.27,0,0,1,38.908,33.35ZM7.583,25.832h2.506v5.012H7.583Zm5.012,0H15.1v5.012H12.595Zm5.012,0h2.506v5.012H17.607Z" transform="translate(0.665 -2.363)" fill="#fdfdfd"/>
        <path id="パス_3142" data-name="パス 3142" d="M0,0,39.125.788v6l1.713,3.31V29.8L39.68,31l-32.7.083-.6-.844H3.066Z" fill="#03cdd5"/>
      </g>
      <path id="Icon_metro-credit-card-2" data-name="Icon metro-credit-card" d="M38.908,5.784H6.33A3.77,3.77,0,0,0,2.571,9.543V32.1A3.77,3.77,0,0,0,6.33,35.856H38.908A3.77,3.77,0,0,0,42.667,32.1V9.543a3.77,3.77,0,0,0-3.759-3.759ZM6.33,8.29H38.908a1.27,1.27,0,0,1,1.253,1.253V15.3H5.077V9.543A1.27,1.27,0,0,1,6.33,8.29ZM38.908,33.35H6.33A1.27,1.27,0,0,1,5.077,32.1V20.82H40.161V32.1A1.27,1.27,0,0,1,38.908,33.35ZM7.583,25.832h2.506v5.012H7.583Zm5.012,0H15.1v5.012H12.595Zm5.012,0h2.506v5.012H17.607Z" transform="translate(209.836 2479.818)" fill="#fdfdfd"/>
    </g>
  </g>
</svg>
