<svg xmlns="http://www.w3.org/2000/svg" width="48.156" height="77.05" viewBox="0 0 48.156 77.05">
  <path id="Icon_awesome-mobile-alt" data-name="Icon awesome-mobile-alt" d="M40.933,0H7.223A7.225,7.225,0,0,0,0,7.223v62.6A7.225,7.225,0,0,0,7.223,77.05h33.71a7.225,7.225,0,0,0,7.223-7.223V7.223A7.225,7.225,0,0,0,40.933,0ZM24.078,72.235a4.816,4.816,0,1,1,4.816-4.816A4.81,4.81,0,0,1,24.078,72.235ZM40.933,55.982a1.811,1.811,0,0,1-1.806,1.806H9.029a1.811,1.811,0,0,1-1.806-1.806V9.029A1.811,1.811,0,0,1,9.029,7.223h30.1a1.811,1.811,0,0,1,1.806,1.806Z" fill="#e4e4e4"/>
</svg>
