<svg xmlns="http://www.w3.org/2000/svg" xmlns:xlink="http://www.w3.org/1999/xlink" width="117.29" height="55.793" viewBox="0 0 117.29 55.793">
  <defs>
    <clipPath id="clip-path">
      <rect id="長方形_2665" data-name="長方形 2665" width="117.29" height="55.793" fill="none"/>
    </clipPath>
  </defs>
  <g id="グループ_5429" data-name="グループ 5429" transform="translate(-125.711 -4783.766)">
    <g id="グループ_3057" data-name="グループ 3057" transform="translate(125.711 4783.766)">
      <g id="グループ_3054" data-name="グループ 3054">
        <g id="グループ_3053" data-name="グループ 3053" clip-path="url(#clip-path)">
          <path id="パス_3041" data-name="パス 3041" d="M8.62,40.556c1.262-6.65,2.741-14.636,3.854-20.678a10.664,10.664,0,0,1,11.047-8.719l86.729,4.533a10.667,10.667,0,0,1,10.024,9.292l2.084,16.2a10.668,10.668,0,0,1-10.58,12.029H19.1A10.667,10.667,0,0,1,8.62,40.556" transform="translate(-5.157 -6.817)" fill="#252525"/>
          <path id="パス_3042" data-name="パス 3042" d="M144.687,109.022s5.121,9.945,13.643,13.461c0,0-3.486-6.81-3.486-13.461" transform="translate(-88.507 -66.691)" fill="#252525"/>
          <path id="パス_3043" data-name="パス 3043" d="M.19,29.412c1.262-6.65,2.741-14.636,3.854-20.678A10.664,10.664,0,0,1,15.092.015l86.729,4.533a10.668,10.668,0,0,1,10.024,9.292l2.084,16.2a10.667,10.667,0,0,1-10.58,12.029H10.671A10.667,10.667,0,0,1,.19,29.412" transform="translate(0 0)" fill="#fdf369" stroke="#252525" stroke-width="1"/>
          <path id="パス_3044" data-name="パス 3044" d="M136.257,97.878s5.121,9.946,13.643,13.461c0,0-3.486-6.81-3.486-13.461" transform="translate(-83.351 -59.874)" fill="#fdf369"/>
        </g>
      </g>
    </g>
    <path id="パス_3193" data-name="パス 3193" d="M14.146,7.818A14.452,14.452,0,0,0,8.734,8.94,16.657,16.657,0,0,1,9.878,7.312L6.556,6.124a26.822,26.822,0,0,0-4.51,11.528l3.322.9A28.5,28.5,0,0,1,6.71,13.076,21.468,21.468,0,0,1,13.772,11.4c1.276,0,2.156.33,2.156,1.166a12.2,12.2,0,0,1-1.606,3.938,15.32,15.32,0,0,0-5.566-2.684L7.04,16.618a18.172,18.172,0,0,1,5.412,2.926,36.818,36.818,0,0,1-4.4,5.192l3.124,2c5.1-5.06,8.536-11.638,8.536-15.026C19.712,9.006,17.2,7.818,14.146,7.818Zm20.13,9.328a20.21,20.21,0,0,0-1.562-6.4l-3.08,1.012A22.1,22.1,0,0,1,31,17.894Zm-.924,9.482a19.99,19.99,0,0,0,7.48-14.344l-3.52-.946c-.352,4.774-1.5,9.02-6.974,13.112Zm-3.564-8.4a17.9,17.9,0,0,0-1.716-6.4l-3.014.946c.88,1.584,1.364,4.818,1.628,6.226Zm33.066-7.238A2.145,2.145,0,1,0,60.72,8.83,2.16,2.16,0,0,0,62.854,10.986ZM46.794,13.78a34.77,34.77,0,0,1,10.934-2.2c1.32,0,2.288.264,2.288,1.408,0,1.936-2.992,7.106-8.932,10.736l3.168,2.75c7.436-5.28,9.7-11.55,9.7-14.388,0-.22-.022-.44-.044-.66a2.458,2.458,0,0,1-1.056.22A2.788,2.788,0,0,1,60.17,8.082a15.332,15.332,0,0,0-2.662-.2A39.18,39.18,0,0,0,45.5,10.106Zm16.06-4.246a.69.69,0,0,1-.682-.7.693.693,0,1,1,1.386,0A.7.7,0,0,1,62.854,9.534Z" transform="translate(150.182 4790.662)" fill="#252525"/>
  </g>
</svg>
