<svg xmlns="http://www.w3.org/2000/svg" xmlns:xlink="http://www.w3.org/1999/xlink" width="132.03" height="113.227" viewBox="0 0 132.03 113.227">
  <defs>
    <clipPath id="clip-path">
      <rect id="長方形_2644" data-name="長方形 2644" width="40.222" height="39.526" fill="none"/>
    </clipPath>
    <clipPath id="clip-path-2">
      <rect id="長方形_2645" data-name="長方形 2645" width="38.071" height="38.899" fill="none" stroke="#707070" stroke-width="1"/>
    </clipPath>
    <clipPath id="clip-path-3">
      <rect id="長方形_2656" data-name="長方形 2656" width="33.977" height="38.99" fill="none"/>
    </clipPath>
  </defs>
  <g id="グループ_3113" data-name="グループ 3113" transform="translate(-45.955 -2694.985)">
    <g id="グループ_1838" data-name="グループ 1838" transform="translate(-7538.765 106)">
      <rect id="anh-nhat-Ee-EjUVs__w-unsplash" width="68.772" height="56.584" transform="translate(7647.978 2645.627)" fill="#fff"/>
      <rect id="anh-nhat-Ee-EjUVs__w-unsplash-2" data-name="anh-nhat-Ee-EjUVs__w-unsplash" width="66.015" height="56.584" transform="translate(7584.72 2589.043)" fill="#fff"/>
      <g id="グループ_1835" data-name="グループ 1835" transform="translate(7584.72 2588.985)">
        <rect id="anh-nhat-Ee-EjUVs__w-unsplash-3" data-name="anh-nhat-Ee-EjUVs__w-unsplash" width="66.015" height="56.584" transform="translate(0 56.642)" fill="#03cdd5"/>
        <rect id="anh-nhat-Ee-EjUVs__w-unsplash-4" data-name="anh-nhat-Ee-EjUVs__w-unsplash" width="66.015" height="56.584" transform="translate(66.015 0)" fill="#03cdd5"/>
        <g id="グループ_1825" data-name="グループ 1825" transform="translate(80.716 9.33)">
          <g id="グループ_1824" data-name="グループ 1824" transform="translate(0 0)">
            <g id="グループ_1823" data-name="グループ 1823" clip-path="url(#clip-path)">
              <path id="パス_2639" data-name="パス 2639" d="M29.41,15.7a4.642,4.642,0,0,0-.32-.748l-.212-.362a3.656,3.656,0,0,0,.737-2.132V8.194a3.607,3.607,0,0,0-.478-1.747l-.1-.184a2.188,2.188,0,0,0,.235-.957C29.267,1.862,21.813,0,14.808,0S.358,1.862.358,5.305a2.441,2.441,0,0,0,.218.957l-.1.184A3.658,3.658,0,0,0,0,8.194v4.265a3.722,3.722,0,0,0,.731,2.132l-.2.362A3.565,3.565,0,0,0,0,16.779v4.269a3.686,3.686,0,0,0,.7,2.084l-.168.3A3.6,3.6,0,0,0,0,25.256v4.258c0,3.8,6.5,6.765,14.808,6.765a32.784,32.784,0,0,0,4.82-.358c-.094-.134-.165-.279-.258-.408A11.934,11.934,0,1,0,29.41,15.7M14.808,1.586c7.968,0,12.863,2.17,12.863,3.72S22.776,9.03,14.808,9.03,1.944,6.86,1.944,5.305s4.891-3.72,12.865-3.72M1.583,8.908c2.379,2.011,7.886,3.054,13.225,3.054s10.846-1.043,13.219-3.054v3.55c0,2.446-5.425,5.174-13.219,5.174S1.583,14.9,1.583,12.458Zm0,8.125c2.436,2.222,7.434,3.645,13.225,3.645a31.555,31.555,0,0,0,3.936-.258,11.869,11.869,0,0,0-2.086,4.38,10.93,10.93,0,0,0-.241,1.353c-.54.017-1.049.065-1.609.065-7.79,0-13.225-2.727-13.225-5.169ZM14.808,34.692c-7.79,0-13.225-2.723-13.225-5.178v-4c2.436,2.227,7.434,3.647,13.225,3.647.553,0,1.081-.034,1.621-.067a11.972,11.972,0,0,0,1.278,4.072,12.221,12.221,0,0,0,.832,1.3,30.666,30.666,0,0,1-3.73.23m13.466,2.457a9.529,9.529,0,0,1-7-3.064,10.281,10.281,0,0,1-1.07-1.361A9.522,9.522,0,0,1,18.7,27.577v-.086a10.682,10.682,0,0,1,.155-1.625,9.856,9.856,0,0,1,.373-1.414,9.61,9.61,0,0,1,7.815-6.367A9.471,9.471,0,0,1,28.274,18c.115,0,.235.013.352.021a9.568,9.568,0,0,1-.352,19.13" transform="translate(0 0)" fill="#fdfdfd"/>
            </g>
          </g>
          <path id="Icon_awesome-wordpress" data-name="Icon awesome-wordpress" d="M2.7,6.991,6.744,18.065A8.476,8.476,0,0,1,2.7,6.991Zm13.459,3.023a4.469,4.469,0,0,0-.7-2.338,3.963,3.963,0,0,1-.832-1.988,1.467,1.467,0,0,1,1.422-1.506c.036,0,.072,0,.112.008A8.473,8.473,0,0,0,3.359,5.784c.2.008.386.012.546.012.884,0,2.258-.108,2.258-.108a.35.35,0,0,1,.056.7s-.458.052-.968.08l3.087,9.177,1.856-5.561L8.875,6.466c-.458-.028-.888-.08-.888-.08a.35.35,0,0,1,.052-.7s1.4.108,2.231.108c.884,0,2.258-.108,2.258-.108a.35.35,0,0,1,.056.7s-.458.052-.968.08l3.063,9.11.844-2.824A10.46,10.46,0,0,0,16.161,10.015Zm-5.572,1.167L8.047,18.57a8.444,8.444,0,0,0,5.206-.135.635.635,0,0,1-.06-.116l-2.605-7.138Zm7.289-4.808a6.6,6.6,0,0,1,.056.872,7.961,7.961,0,0,1-.645,3.035L14.7,17.766A8.482,8.482,0,0,0,17.877,6.374Zm2.442,4.067A9.878,9.878,0,1,1,10.441.563,9.889,9.889,0,0,1,20.319,10.441Zm-.454,0a9.424,9.424,0,1,0-9.424,9.424A9.435,9.435,0,0,0,19.865,10.441Z" transform="translate(17.891 17.287)" fill="#fdfdfd"/>
        </g>
        <g id="マスクグループ_1826" data-name="マスクグループ 1826" transform="translate(82.668 67.594)" clip-path="url(#clip-path-2)">
          <path id="パス_2640" data-name="パス 2640" d="M14.532,12.477,13.11,13.9l-1.42,1.42a13.66,13.66,0,0,0,4.433,5.844.825.825,0,0,0,1.095-.067l1.546-1.546L20.308,18a.827.827,0,0,0,.068-1.095A13.67,13.67,0,0,0,14.532,12.477Z" transform="translate(6.032 6.439)" fill="none" stroke="#344154" stroke-linecap="round" stroke-linejoin="round" stroke-width="1"/>
          <path id="パス_2641" data-name="パス 2641" d="M15.528,18.826l7.122,7.122a1.776,1.776,0,1,0,2.51-2.512l-7.122-7.122" transform="translate(8.012 8.418)" fill="none" stroke="#344154" stroke-linecap="round" stroke-linejoin="round" stroke-width="1"/>
          <path id="パス_2642" data-name="パス 2642" d="M13.625,17.254a5,5,0,0,1-3.1-.55,4.574,4.574,0,0,1-1.8-2.4,8.921,8.921,0,0,1-.478-2.45L7.94,8.727l3.127.309a8.865,8.865,0,0,1,2.45.478,4.555,4.555,0,0,1,2.4,1.8,5,5,0,0,1,.55,3.1" transform="translate(4.097 4.504)" fill="none" stroke="#344154" stroke-linecap="round" stroke-linejoin="round" stroke-width="1"/>
          <path id="パス_2643" data-name="パス 2643" d="M33.985,38.246H1.788A1.466,1.466,0,0,1,.321,36.78V1.787A1.466,1.466,0,0,1,1.788.321H35.953A1.466,1.466,0,0,1,37.42,1.787V36.78a1.466,1.466,0,0,1-1.467,1.466Z" transform="translate(0.166 0.166)" fill="none" stroke="#344154" stroke-linecap="round" stroke-linejoin="round" stroke-width="1"/>
          <circle id="楕円形_188" data-name="楕円形 188" cx="0.349" cy="0.349" r="0.349" transform="translate(4.775 4.145)" fill="none" stroke="#344154" stroke-linecap="round" stroke-linejoin="round" stroke-width="1"/>
          <circle id="楕円形_189" data-name="楕円形 189" cx="0.349" cy="0.349" r="0.349" transform="translate(8.754 4.145)" fill="none" stroke="#344154" stroke-linecap="round" stroke-linejoin="round" stroke-width="1"/>
          <circle id="楕円形_190" data-name="楕円形 190" cx="0.349" cy="0.349" r="0.349" transform="translate(12.733 4.145)" fill="none" stroke="#344154" stroke-linecap="round" stroke-linejoin="round" stroke-width="1"/>
          <line id="線_35" data-name="線 35" x2="31.335" transform="translate(3.368 8.427)" fill="none" stroke="#344154" stroke-linecap="round" stroke-linejoin="round" stroke-width="1"/>
          <path id="パス_2644" data-name="パス 2644" d="M7.8,8.727H3.61V28.6H22.738" transform="translate(1.863 4.504)" fill="none" stroke="#344154" stroke-linecap="round" stroke-linejoin="round" stroke-width="1"/>
          <path id="パス_2645" data-name="パス 2645" d="M10.158,10.207l-.817-.08.08.817a7.436,7.436,0,0,0,.35,1.93,2.751,2.751,0,0,0,.957,1.442,3.1,3.1,0,0,0,.84.3,7.254,7.254,0,0,1-.135-.72,3.884,3.884,0,0,1,.481-2.583,3.273,3.273,0,0,1,.511-.606c-.1-.049-.215-.1-.337-.146a7.436,7.436,0,0,0-1.93-.35" transform="translate(4.82 5.226)" fill="#03cdd5"/>
        </g>
        <g id="グループ_1834" data-name="グループ 1834" transform="translate(14.403 9.33)">
          <g id="グループ_1833" data-name="グループ 1833" transform="translate(0 0)">
            <circle id="楕円形_191" data-name="楕円形 191" cx="0.349" cy="0.349" r="0.349" transform="translate(4.288 3.658)" fill="none" stroke="#344154" stroke-linecap="round" stroke-linejoin="round" stroke-width="1"/>
            <g id="グループ_1832" data-name="グループ 1832" transform="translate(8.268 3.658)">
              <circle id="楕円形_192" data-name="楕円形 192" cx="0.349" cy="0.349" r="0.349" fill="none" stroke="#344154" stroke-linecap="round" stroke-linejoin="round" stroke-width="1"/>
              <circle id="楕円形_193" data-name="楕円形 193" cx="0.349" cy="0.349" r="0.349" transform="translate(3.979)" fill="none" stroke="#344154" stroke-linecap="round" stroke-linejoin="round" stroke-width="1"/>
            </g>
            <g id="グループ_1831" data-name="グループ 1831">
              <path id="パス_2647" data-name="パス 2647" d="M22.7,38.246H35.953A1.467,1.467,0,0,0,37.42,36.78V1.788A1.468,1.468,0,0,0,35.953.321H1.787A1.466,1.466,0,0,0,.321,1.788V36.78a1.466,1.466,0,0,0,1.466,1.466H22.7" transform="translate(-0.321 -0.321)" fill="none" stroke="#344154" stroke-linecap="round" stroke-linejoin="round" stroke-width="1"/>
              <line id="線_42" data-name="線 42" x2="31.335" transform="translate(2.881 7.939)" fill="none" stroke="#344154" stroke-linecap="round" stroke-linejoin="round" stroke-width="1"/>
            </g>
          </g>
          <g id="グループ_1830" data-name="グループ 1830" transform="translate(6.873 14.154)">
            <g id="グループ_1829" data-name="グループ 1829">
              <path id="パス_2646" data-name="パス 2646" d="M17.557,15.285l-6.749-4.234v8.468Z" transform="translate(-1.784 -6.528)" fill="none" stroke="#344154" stroke-linecap="round" stroke-linejoin="round" stroke-width="1"/>
              <rect id="長方形_2646" data-name="長方形 2646" width="23.351" height="17.513" transform="translate(0 0.001)" fill="none" stroke="#344154" stroke-linecap="round" stroke-linejoin="round" stroke-width="1"/>
              <line id="線_36" data-name="線 36" y2="17.513" transform="translate(4.552)" fill="none" stroke="#344154" stroke-linecap="round" stroke-linejoin="round" stroke-width="1"/>
              <line id="線_37" data-name="線 37" x1="4.551" transform="translate(0.001 5.942)" fill="none" stroke="#344154" stroke-linecap="round" stroke-linejoin="round" stroke-width="1"/>
              <line id="線_38" data-name="線 38" x1="4.551" transform="translate(0.001 11.806)" fill="none" stroke="#344154" stroke-linecap="round" stroke-linejoin="round" stroke-width="1"/>
              <line id="線_39" data-name="線 39" y2="17.513" transform="translate(18.8)" fill="none" stroke="#344154" stroke-linecap="round" stroke-linejoin="round" stroke-width="1"/>
              <line id="線_40" data-name="線 40" x2="4.551" transform="translate(18.8 5.942)" fill="none" stroke="#344154" stroke-linecap="round" stroke-linejoin="round" stroke-width="1"/>
              <line id="線_41" data-name="線 41" x2="4.551" transform="translate(18.8 11.806)" fill="none" stroke="#344154" stroke-linecap="round" stroke-linejoin="round" stroke-width="1"/>
            </g>
            <path id="パス_2649" data-name="パス 2649" d="M11.445,19.815h6.907V15.552Z" transform="translate(-1.455 -4.521)" fill="#03cdd5"/>
          </g>
        </g>
      </g>
    </g>
    <g id="グループ_1850" data-name="グループ 1850" transform="translate(61 2761.251)">
      <path id="パス_2663" data-name="パス 2663" d="M1.764,1.764H27.579v31.49H1.764ZM0,35.009H29.343V0H0Z" fill="#fdfdfd"/>
      <rect id="長方形_2654" data-name="長方形 2654" width="20.053" height="1.854" transform="translate(4.848 5.686)" fill="#fdfdfd"/>
      <rect id="長方形_2655" data-name="長方形 2655" width="20.053" height="1.841" transform="translate(4.848 11.521)" fill="#fdfdfd"/>
      <path id="パス_2664" data-name="パス 2664" d="M27.366,1.246V3.007h1.669V34.5H3.218V33.271H1.454v3H30.8V1.246Z" transform="translate(3.176 2.722)" fill="#fdfdfd"/>
      <g id="グループ_1849" data-name="グループ 1849" transform="translate(0 0.001)">
        <g id="グループ_1848" data-name="グループ 1848" clip-path="url(#clip-path-3)">
          <path id="パス_2665" data-name="パス 2665" d="M3.266,13.889a2.175,2.175,0,0,0,.965-.242L6.744,15.7a1.544,1.544,0,0,0-.064.287,2.2,2.2,0,0,0,4.4,0,2.019,2.019,0,0,0-.248-.962c1.213-1.812,2.755-4.134,3.688-5.523a2.333,2.333,0,0,0,.43.08,2.2,2.2,0,0,0,1.382-.516c.819.487,1.9,1.115,2.822,1.653,0,.035-.013.048-.013.083a2.238,2.238,0,1,0,.8-1.669l-2.809-1.64c0-.035.01-.067.01-.105a2.193,2.193,0,1,0-4.386,0,2.068,2.068,0,0,0,.331,1.092c-1.163,1.739-2.669,4-3.609,5.427a1.873,1.873,0,0,0-.589-.124,2.125,2.125,0,0,0-1.207.411c-.7-.573-1.564-1.277-2.341-1.914a2.023,2.023,0,0,0,.124-.6,2.2,2.2,0,1,0-2.2,2.2" transform="translate(2.327 11.342)" fill="#fdfdfd"/>
        </g>
      </g>
    </g>
  </g>
</svg>
